<?xml version="1.0" encoding="UTF-8" standalone="no"?>
<svg
   version="1.1"
   id="Layer_1"
   x="0px"
   y="0px"
   width="100%"
   viewBox="0 0 512 512"
   enable-background="new 0 0 512 512"
   xml:space="preserve"
   sodipodi:docname="calendar_adobe_express.svg"
   inkscape:version="1.1.1 (3bf5ae0d25, 2021-09-20)"
   xmlns:inkscape="http://www.inkscape.org/namespaces/inkscape"
   xmlns:sodipodi="http://sodipodi.sourceforge.net/DTD/sodipodi-0.dtd"
   xmlns="http://www.w3.org/2000/svg"
   xmlns:svg="http://www.w3.org/2000/svg"><defs
   id="defs7" /><sodipodi:namedview
   id="namedview5"
   pagecolor="#ffffff"
   bordercolor="#666666"
   borderopacity="1.0"
   inkscape:pageshadow="2"
   inkscape:pageopacity="0.0"
   inkscape:pagecheckerboard="0"
   showgrid="false"
   inkscape:zoom="0.79296875"
   inkscape:cx="-37.20197"
   inkscape:cy="215.01478"
   inkscape:window-width="1920"
   inkscape:window-height="1001"
   inkscape:window-x="-9"
   inkscape:window-y="-9"
   inkscape:window-maximized="1"
   inkscape:current-layer="Layer_1" />

<path
   style="fill:#000000"
   d="m 70.652714,512.56351 c -13.23331,-1.75516 -27.37248,-9.1063 -38.02462,-19.76949 -9.06788,-9.07729 -14.10976,-17.63025 -17.40712,-29.52919 -2.05562,-7.41795 -2.06826,-8.56082 -2.06826,-187.00376 0,-178.442933 0.0126,-179.585803 2.06826,-187.003763 6.0052,-21.670474 22.58925,-39.183474 44.03053,-46.496854 7.87546,-2.68622 9.62982,-2.89179 28.03389,-3.28478 l 19.632696,-0.41922 0.41199,-12.37511 c 0.39204,-11.77612 0.55568,-12.5819 3.38069,-16.647681 6.92254,-9.96297966 19.93503,-11.4637301 28.58764,-3.2970597 4.88266,4.6084507 5.85431,8.0925907 5.85431,20.9923607 v 11.53212 h 113.92053 113.92053 l 0.32947,-12.82791 c 0.29846,-11.62036 0.55632,-13.15853 2.73929,-16.340171 9.46803,-13.7994601 29.58517,-10.44442966 33.9864,5.668081 0.60095,2.2 1.09514,8.34055 1.0982,13.64566 l 0.006,9.64566 19.75,0.42125 c 18.53146,0.39526 20.26834,0.59805 28.1512,3.2868 21.44129,7.31338 38.02534,24.82638 44.03052,46.496854 2.0555,7.41765 2.0683,8.56556 2.0683,186.573703 0,175.40482 -0.041,179.27075 -1.9857,186.87388 -6.39293,24.99629 -28.63896,45.36954 -54.03998,49.49066 -6.14852,0.99755 -371.052626,1.35232 -378.474346,0.36796 z M 448.53946,473.21756 c 6.8805,-2.57432 13.02673,-8.47384 16.4619,-15.80111 l 2.65136,-5.65538 0.26878,-125.75 0.26879,-125.75 H 259.15272 50.115144 l 0.26878,125.75 0.26879,125.75 2.21478,4.79749 c 2.82543,6.12027 5.35118,9.30537 10.21614,12.88309 8.24046,6.06011 -4.97086,5.67217 195.781576,5.74896 183.15814,0.0701 184.24375,0.0588 189.67425,-1.97305 z m 19.42839,-341.73129 -0.31513,-30.77479 -3.2849,-6.668823 C 460.65711,86.50942 455.8266,82.08493 448.11276,79.1539 c -4.13314,-1.57047 -7.70448,-1.89282 -20.97077,-1.89282 h -15.98927 v 9.55718 c 0,12.651457 -1.3898,17.83261 -6.02745,22.47026 -7.02244,7.02244 -17.9749,7.42143 -25.37463,0.92438 -5.55315,-4.87573 -6.59792,-8.25693 -6.59792,-21.352953 V 77.26108 h -114 -114 v 11.598867 c 0,13.096023 -1.04477,16.477223 -6.59792,21.352953 -6.79157,5.96308 -16.59883,6.18643 -23.99324,0.54643 -5.30051,-4.04289 -6.79375,-8.53412 -7.23084,-21.748253 L 106.94207,77.26108 H 91.058116 c -13.162952,0 -16.737312,0.32425 -20.865452,1.89282 -7.71383,2.93103 -12.54435,7.35552 -16.25505,14.888757 l -3.2849,6.668823 -0.31513,30.77479 -0.31513,30.7748 H 259.15272 468.28298 Z"
   id="path916" /></svg>
