<svg version="1.1" id="Layer_1" xmlns="http://www.w3.org/2000/svg" xmlns:xlink="http://www.w3.org/1999/xlink" x="0px" y="0px"
	 width="100%" viewBox="0 0 512 512" enable-background="new 0 0 512 512" xml:space="preserve">
<path fill="#000000" opacity="1.000000" stroke="none" 
	d="
M234.000000,1.000000 
	C251.687561,1.000000 269.375122,1.000000 287.807312,1.204954 
	C291.612335,3.530333 295.310425,2.903520 298.652557,3.419719 
	C329.370605,8.164191 358.062439,18.610962 384.936188,33.987347 
	C412.755524,49.904778 436.577148,70.568321 456.830200,95.476898 
	C475.579773,118.536453 489.675293,144.092255 499.655151,172.002060 
	C506.833954,192.078339 510.829071,212.843811 513.000000,234.000000 
	C513.000000,249.354233 513.000000,264.708466 512.958984,280.925903 
	C511.525208,291.448853 510.382263,301.142426 508.387451,310.713928 
	C503.649231,333.448486 495.864563,355.112335 485.084015,375.631653 
	C475.487000,393.898224 463.953125,410.863495 450.157227,426.332947 
	C437.953491,440.017120 424.764954,452.567078 410.080658,463.484406 
	C395.257660,474.504761 379.413666,483.829376 362.501801,491.393311 
	C343.936249,499.696838 324.793579,505.903961 304.775818,509.597900 
	C299.508789,510.569855 293.871399,510.124420 289.000000,513.000000 
	C267.979095,513.000000 246.958206,513.000000 225.274078,512.739868 
	C217.847992,510.262238 210.724411,509.923859 203.801651,508.511566 
	C183.529694,504.375946 164.130356,497.639160 145.547318,488.717896 
	C127.992516,480.290283 111.566628,469.929626 96.406769,457.620239 
	C82.816612,446.585297 70.337341,434.418610 59.150627,420.974030 
	C43.565617,402.243469 30.901970,381.675964 21.224033,359.293457 
	C13.628273,341.726501 7.914474,323.607025 4.462779,304.739532 
	C3.500907,299.481812 4.034195,293.820129 1.000000,289.000000 
	C1.000000,270.979095 1.000000,252.958206 1.047362,234.071716 
	C1.589512,229.607452 2.141906,226.015640 2.570045,222.409088 
	C6.255690,191.361969 16.113804,162.348114 30.850794,134.836777 
	C46.437008,105.740120 67.119820,80.811600 92.269485,59.655487 
	C121.160637,35.352009 154.026169,18.399408 190.527054,8.606479 
	C204.788162,4.780322 219.349823,2.626064 234.000000,1.000000 
M463.730194,197.404251 
	C454.586639,165.167297 438.341614,136.849991 415.853607,112.178444 
	C399.738983,94.499207 381.276642,79.503098 360.130615,68.208595 
	C323.480377,48.632988 284.575226,39.085018 242.749756,42.259045 
	C225.095367,43.598782 207.877975,46.633728 191.120178,52.137966 
	C163.332336,61.265106 138.385803,75.358009 116.289482,94.693916 
	C96.937340,111.628464 80.656265,130.997681 68.437424,153.534698 
	C48.532021,190.249237 39.103050,229.382339 42.237411,271.383881 
	C43.617756,289.881042 46.923615,307.912292 52.937740,325.367310 
	C62.180046,352.191589 76.067398,376.322174 94.886200,397.778137 
	C112.093552,417.396881 131.743500,433.846985 154.636200,446.112610 
	C191.112427,465.656189 229.947021,474.984497 271.603607,471.729065 
	C292.450653,470.099915 312.583313,465.896820 332.129944,458.587555 
	C368.502380,444.986542 398.737579,422.698242 423.458679,393.033905 
	C438.444519,375.051483 449.934021,354.840576 458.381439,332.916412 
	C465.232574,315.135071 469.379333,296.703522 471.436127,277.872345 
	C472.765259,265.703278 473.106171,253.450150 471.800446,241.103302 
	C470.261810,226.553467 468.090179,212.209320 463.730194,197.404251 
z"/>
<path fill="#000000" opacity="1.000000" stroke="none" 
	d="
M236.633270,238.999817 
	C236.633484,205.510468 236.717255,172.520813 236.594193,139.531937 
	C236.543045,125.819283 246.024918,118.708282 257.232330,118.922035 
	C268.809021,119.142830 277.448914,126.316467 277.409302,139.505875 
	C277.307709,173.327972 277.445160,207.150879 277.297363,240.972626 
	C277.277283,245.562943 278.578827,248.597244 282.413483,251.419922 
	C303.666290,267.063995 324.603790,283.136200 345.842468,298.799805 
	C357.446625,307.357910 358.993378,317.571930 355.013641,327.291962 
	C350.635132,337.985931 336.364777,340.907349 327.849152,336.896057 
	C319.055237,332.753754 311.978607,326.017242 304.247925,320.302063 
	C284.749695,305.887268 265.507721,291.126099 246.035492,276.675659 
	C239.640381,271.929810 236.439453,265.938660 236.606674,257.993042 
	C236.736359,251.831177 236.633118,245.664413 236.633270,238.999817 
z"/>
</svg>