<?xml version="1.0" encoding="UTF-8" standalone="no"?>
<!-- Created with Inkscape (http://www.inkscape.org/) -->

<svg
   width="512"
   height="512"
   viewBox="0 0 135.46666 135.46667"
   version="1.1"
   id="svg1122"
   sodipodi:docname="drag_and_drop.svg"
   inkscape:version="1.1.1 (3bf5ae0d25, 2021-09-20)"
   xmlns:inkscape="http://www.inkscape.org/namespaces/inkscape"
   xmlns:sodipodi="http://sodipodi.sourceforge.net/DTD/sodipodi-0.dtd"
   xmlns="http://www.w3.org/2000/svg"
   xmlns:svg="http://www.w3.org/2000/svg">
  <sodipodi:namedview
     id="namedview6"
     pagecolor="#ffffff"
     bordercolor="#666666"
     borderopacity="1.0"
     inkscape:pageshadow="2"
     inkscape:pageopacity="0.0"
     inkscape:pagecheckerboard="0"
     showgrid="false"
     inkscape:zoom="0.79296875"
     inkscape:cx="139.9803"
     inkscape:cy="217.53695"
     inkscape:window-width="1920"
     inkscape:window-height="1001"
     inkscape:window-x="-9"
     inkscape:window-y="-9"
     inkscape:window-maximized="1"
     inkscape:current-layer="svg1122" />
  <defs
     id="defs1119" />
  <path
     style="fill:#4d4d4d;stroke-width:0.264583"
     d="m 47.436096,112.34298 c -2.797874,-0.91037 -5.403816,-3.21044 -6.769473,-5.97492 -0.804796,-1.62913 -0.846833,-1.86583 -0.846833,-4.76807 0,-2.907739 0.04094,-3.137003 0.8559,-4.792411 1.093065,-2.220333 3.111558,-4.238826 5.331891,-5.331891 1.655408,-0.814957 1.884672,-0.855901 4.792416,-0.855901 2.907745,0 3.137009,0.04094 4.792417,0.855901 2.220333,1.093065 4.238826,3.111558 5.331891,5.331891 0.814956,1.655408 0.8559,1.884672 0.8559,4.792411 0,2.90775 -0.04094,3.13701 -0.8559,4.79242 -1.091031,2.2162 -3.11199,4.23904 -5.322136,5.32709 -1.551469,0.76379 -2.00183,0.85803 -4.389977,0.91868 -1.711997,0.0435 -3.058821,-0.0618 -3.776096,-0.2952 z m 33.866665,0 c -2.797874,-0.91037 -5.403816,-3.21044 -6.769473,-5.97492 -0.804796,-1.62913 -0.846833,-1.86583 -0.846833,-4.76807 0,-2.907739 0.04094,-3.137003 0.8559,-4.792411 1.093065,-2.220333 3.111558,-4.238826 5.331891,-5.331891 1.655408,-0.814957 1.884672,-0.855901 4.792416,-0.855901 2.907745,0 3.137009,0.04094 4.792417,0.855901 2.220333,1.093065 4.238826,3.111558 5.331891,5.331891 0.814956,1.655408 0.8559,1.884672 0.8559,4.792411 0,2.90775 -0.04094,3.13701 -0.8559,4.79242 -1.091031,2.2162 -3.11199,4.23904 -5.322136,5.32709 -1.551469,0.76379 -2.00183,0.85803 -4.389977,0.91868 -1.711997,0.0435 -3.058821,-0.0618 -3.776096,-0.2952 z M 47.436096,78.476318 C 44.638222,77.565947 42.03228,75.265872 40.666623,72.501394 39.861827,70.872262 39.81979,70.635568 39.81979,67.73333 c 0,-2.907744 0.04094,-3.137008 0.8559,-4.792416 1.093065,-2.220333 3.111558,-4.238826 5.331891,-5.331891 1.655408,-0.814957 1.884672,-0.855901 4.792416,-0.855901 2.907745,0 3.137009,0.04094 4.792417,0.855901 2.220333,1.093065 4.238826,3.111558 5.331891,5.331891 0.814956,1.655408 0.8559,1.884672 0.8559,4.792416 0,2.907744 -0.04094,3.137008 -0.8559,4.792416 -1.091031,2.216198 -3.11199,4.239038 -5.322136,5.327089 -1.551469,0.763786 -2.00183,0.858031 -4.389977,0.918681 -1.711997,0.04348 -3.058821,-0.06181 -3.776096,-0.295198 z m 33.866665,0 c -2.797874,-0.910371 -5.403816,-3.210446 -6.769473,-5.974924 -0.804796,-1.629132 -0.846833,-1.865826 -0.846833,-4.768064 0,-2.907744 0.04094,-3.137008 0.8559,-4.792416 1.093065,-2.220333 3.111558,-4.238826 5.331891,-5.331891 1.655408,-0.814957 1.884672,-0.855901 4.792416,-0.855901 2.907745,0 3.137009,0.04094 4.792417,0.855901 2.220333,1.093065 4.238826,3.111558 5.331891,5.331891 0.814956,1.655408 0.8559,1.884672 0.8559,4.792416 0,2.907744 -0.04094,3.137008 -0.8559,4.792416 -1.091031,2.216198 -3.11199,4.239038 -5.322136,5.327089 -1.551469,0.763786 -2.00183,0.858031 -4.389977,0.918681 -1.711997,0.04348 -3.058821,-0.06181 -3.776096,-0.295198 z M 47.436096,44.609653 C 44.638222,43.699282 42.03228,41.399207 40.666623,38.634729 39.861827,37.005597 39.81979,36.768903 39.81979,33.866665 c 0,-2.907744 0.04094,-3.137008 0.8559,-4.792416 1.093065,-2.220333 3.111558,-4.238826 5.331891,-5.331891 1.655408,-0.814955 1.884672,-0.855901 4.792416,-0.855901 2.907745,0 3.137009,0.04095 4.792417,0.855901 2.220333,1.093065 4.238826,3.111558 5.331891,5.331891 0.814956,1.655408 0.8559,1.884672 0.8559,4.792416 0,2.907744 -0.04094,3.137008 -0.8559,4.792416 -1.091031,2.216198 -3.11199,4.239038 -5.322136,5.327089 -1.551469,0.763786 -2.00183,0.858031 -4.389977,0.918681 -1.711997,0.04348 -3.058821,-0.06181 -3.776096,-0.295198 z m 33.866665,0 c -2.797874,-0.910371 -5.403816,-3.210446 -6.769473,-5.974924 -0.804796,-1.629132 -0.846833,-1.865826 -0.846833,-4.768064 0,-2.907744 0.04094,-3.137008 0.8559,-4.792416 1.093065,-2.220333 3.111558,-4.238826 5.331891,-5.331891 1.655408,-0.814955 1.884672,-0.855901 4.792416,-0.855901 2.907745,0 3.137009,0.04095 4.792417,0.855901 2.220333,1.093065 4.238826,3.111558 5.331891,5.331891 0.814956,1.655408 0.8559,1.884672 0.8559,4.792416 0,2.907744 -0.04094,3.137008 -0.8559,4.792416 -1.091031,2.216198 -3.11199,4.239038 -5.322136,5.327089 -1.551469,0.763786 -2.00183,0.858031 -4.389977,0.918681 -1.711997,0.04348 -3.058821,-0.06181 -3.776096,-0.295198 z"
     id="path915" />
</svg>
