<?xml version="1.0" encoding="UTF-8" standalone="no"?>
<!-- Created with Inkscape (http://www.inkscape.org/) -->

<svg
   width="512"
   height="512"
   viewBox="0 0 135.46666 135.46667"
   version="1.1"
   id="svg1122"
   xmlns="http://www.w3.org/2000/svg"
   xmlns:svg="http://www.w3.org/2000/svg">
  <defs
     id="defs1119" />
  <path
     style="fill:#000000;stroke-width:0.295723"
     d="m 18.840499,135.09319 c -9.5337118,-1.7197 -16.9861262,-7.86251 -18.47800142,-15.23085 -0.4833301,-2.38702 -0.4833301,-101.901882 0,-104.28892 C 2.2281563,6.3589316 13.239205,-0.59882476 24.943707,0.04084546 30.980101,0.37073812 35.758741,2.1296555 40.159356,5.6413879 c 3.072862,2.4521678 5.064068,5.2228991 6.11119,8.5036151 0.635919,1.992323 0.650271,3.179032 0.650271,53.572874 0,50.393863 -0.01391,51.580573 -0.650271,53.572883 -1.047109,3.28071 -3.038328,6.05145 -6.11119,8.50361 -4.615325,3.68307 -9.312521,5.34844 -15.70278,5.56734 -2.346269,0.0806 -4.16362,-0.007 -5.616077,-0.26855 z m 89.691931,0.20611 c -2.13224,-0.23052 -6.38038,-1.43401 -8.42406,-2.38647 -1.180945,-0.55042 -3.34147,-1.95373 -4.801058,-3.11849 -3.07285,-2.45217 -5.064063,-5.2229 -6.111183,-8.50361 -0.63592,-1.99234 -0.650275,-3.17905 -0.650275,-53.572888 0,-50.393847 0.01391,-51.580555 0.650275,-53.572882 1.047105,-3.280714 3.038333,-6.051446 6.111183,-8.5036137 4.400625,-3.5117307 9.179268,-5.27063768 15.215648,-5.60054075 11.70451,-0.63971186 22.71556,6.31808435 24.58121,15.53257545 0.48333,2.387036 0.48333,101.901879 0,104.288919 -1.97965,9.77753 -14.05151,16.79074 -26.57174,15.437 z"
     id="path915" />
</svg>
