<?xml version="1.0" encoding="UTF-8" standalone="no"?>
<!-- Created with Inkscape (http://www.inkscape.org/) -->

<svg
   width="512"
   height="512"
   viewBox="0 0 135.46666 135.46667"
   version="1.1"
   id="svg1122"
   xmlns="http://www.w3.org/2000/svg"
   xmlns:svg="http://www.w3.org/2000/svg">
  <defs
     id="defs1119" />
  <g
     id="layer1">
    <path
       style="fill:#000000;stroke-width:0.278976"
       d="M 10.74551,135.23252 C 5.7909454,134.35823 1.990114,130.4731 0.54105207,124.80169 0.02494961,122.7819 0,120.14935 0,67.760834 0,15.372327 0.02602306,12.739775 0.54105207,10.719975 2.2702524,3.9522242 7.1309057,0 13.725053,0 c 2.144529,0 5.672346,0.83002452 8.327413,1.9592599 3.304215,1.4053362 102.707544,52.6876051 105.652024,54.5059891 1.18388,0.731099 2.91816,2.081468 3.85395,3.000822 6.39253,6.280148 4.82894,14.228206 -3.85395,19.59035 -2.94448,1.818383 -102.347809,53.100659 -105.652024,54.505989 -4.004819,1.70332 -7.877377,2.27533 -11.306956,1.67011 z"
       id="path1195" />
  </g>
</svg>
