<?xml version="1.0" encoding="UTF-8" standalone="no"?>
<!-- Created with Inkscape (http://www.inkscape.org/) -->

<svg
   width="512"
   height="512"
   viewBox="0 0 135.46666 135.46667"
   version="1.1"
   id="svg1122"
   xmlns="http://www.w3.org/2000/svg"
   xmlns:svg="http://www.w3.org/2000/svg">
  <defs
     id="defs1119" />
  <path
     style="fill:#000000;stroke-width:0.344528"
     d="m 131.02828,135.14043 c 1.48053,-0.50149 3.16751,-2.17801 3.81792,-3.79423 0.58436,-1.45211 0.60648,-3.74455 0.61335,-63.555516 l 0.007,-62.0490798 -0.72973,-1.6281 c -0.99974,-2.2305 -2.97156,-3.72542003 -5.18742,-3.93279003 -3.14044,-0.29387 0.31502,-3.44086997 -38.028973,34.63422983 L 75.628595,50.595454 75.466433,27.999484 C 75.377243,15.571704 75.17106,5.0741242 75.008248,4.6715442 c -0.713643,-1.76466 -1.698318,-2.88898 -3.239289,-3.69867003 -1.988489,-1.04485 -3.796364,-1.10045 -5.545806,-0.17055 C 64.672328,1.6266542 2.0260297,63.792524 0.98111965,65.544014 c -1.45606,2.44067 -1.27051,6.20631 0.41734005,8.46988 1.30293,1.74739 63.5865693,60.137586 64.9277503,60.869056 2.699706,1.47237 6.879342,-0.14571 8.300044,-3.21326 0.659299,-1.42353 0.682491,-2.052 0.840179,-22.76517 l 0.162162,-21.301216 25.052715,23.552286 c 13.779,12.95376 25.51299,23.73333 26.07553,23.95463 1.17874,0.4637 2.95455,0.47626 4.27144,0.0301 z"
     id="path1111" />
</svg>
