<?xml version="1.0" encoding="UTF-8" standalone="no"?>
<!-- Created with Inkscape (http://www.inkscape.org/) -->

<svg
   width="512"
   height="512"
   viewBox="0 0 135.46666 135.46667"
   version="1.1"
   id="svg1122"
   xmlns="http://www.w3.org/2000/svg"
   xmlns:svg="http://www.w3.org/2000/svg">
  <defs
     id="defs1119" />
  <path
     style="fill:#000000;stroke-width:0.344528"
     d="M 4.438376,135.14043 C 2.9578527,134.63894 1.2708682,132.96242 0.62046,131.3462 0.0361001,129.89409 0.0139757,127.60165 0.00711,67.790684 L 0,5.7416042 l 0.7297333,-1.6281 c 0.9997336,-2.2305 2.971553,-3.72542003 5.1874128,-3.93279003 3.1404397,-0.29387 -0.315019,-3.44086997 38.0289769,34.63422983 l 15.891942,15.78051 0.162162,-22.59597 c 0.08919,-12.42778 0.295373,-22.9253598 0.458185,-23.3279398 0.713643,-1.76466 1.698318,-2.88898 3.239289,-3.69867003 1.988489,-1.04485 3.796364,-1.10045 5.545806,-0.17055 1.550825,0.82433003 64.197123,62.99019983 65.242033,64.74168983 1.45606,2.44067 1.27051,6.20631 -0.41734,8.46988 -1.30293,1.74739 -63.586569,60.137586 -64.92775,60.869056 -2.699706,1.47237 -6.879342,-0.14571 -8.300044,-3.21326 -0.659299,-1.42353 -0.682491,-2.052 -0.840179,-22.76517 L 59.838065,87.603304 34.785347,111.15559 C 21.00635,124.10935 9.2723643,134.88892 8.7098188,135.11022 c -1.1787418,0.4637 -2.95455,0.47626 -4.2714428,0.0301 z"
     id="path1111" />
</svg>
