<?xml version="1.0" encoding="UTF-8" standalone="no"?>
<svg
   width="456"
   height="456"
   viewBox="0 0 456 456"
   version="1.1"
   xml:space="preserve"
   style="fill-rule:evenodd;clip-rule:evenodd;stroke-linejoin:round;stroke-miterlimit:2;"
   id="svg10"
   sodipodi:docname="my_performance_splash.svg"
   inkscape:version="1.1.1 (3bf5ae0d25, 2021-09-20)"
   xmlns:inkscape="http://www.inkscape.org/namespaces/inkscape"
   xmlns:sodipodi="http://sodipodi.sourceforge.net/DTD/sodipodi-0.dtd"
   xmlns="http://www.w3.org/2000/svg"
   xmlns:svg="http://www.w3.org/2000/svg"><defs
   id="defs14"><rect
     x="62.334975"
     y="203.29064"
     width="450.94581"
     height="86.482757"
     id="rect1529" /></defs><sodipodi:namedview
   id="namedview12"
   pagecolor="#ffffff"
   bordercolor="#666666"
   borderopacity="1.0"
   inkscape:pageshadow="2"
   inkscape:pageopacity="0.0"
   inkscape:pagecheckerboard="0"
   showgrid="false"
   showguides="true"
   inkscape:guide-bbox="true"
   inkscape:snap-midpoints="true"
   inkscape:snap-smooth-nodes="true"
   inkscape:snap-intersection-paths="true"
   inkscape:object-paths="true"
   inkscape:snap-bbox="true"
   inkscape:snap-text-baseline="true"
   inkscape:snap-center="true"
   inkscape:snap-object-midpoints="true"
   inkscape:zoom="0.89035088"
   inkscape:cx="117.93103"
   inkscape:cy="33.133005"
   inkscape:window-width="1920"
   inkscape:window-height="1001"
   inkscape:window-x="-9"
   inkscape:window-y="-9"
   inkscape:window-maximized="1"
   inkscape:current-layer="svg10"><sodipodi:guide
     position="230,454.60532"
     orientation="1,0"
     id="guide8703" /></sodipodi:namedview>
    
    
    
    
<g
   aria-label="MyPerformance"
   transform="translate(-1.8593344,-2.6113321)"
   id="text1527"
   style="font-weight:500;font-size:48px;line-height:1.25;font-family:Roboto;-inkscape-font-specification:'Roboto, Medium';white-space:pre;shape-inside:url(#rect1529)"><path
     d="m 73.492187,211.16602 9.84375,26.15625 9.820313,-26.15625 h 7.66406 v 34.125 h -5.906248 v -11.25 L 95.5,218.99414 85.421875,245.29102 H 81.179687 L 71.125,219.01758 l 0.585937,15.02344 v 11.25 h -5.90625 v -34.125 z"
     id="path8777" /><path
     d="m 116.14844,237.13477 5.15625,-17.20313 h 6.07031 l -10.07812,29.20313 q -2.32032,6.39843 -7.875,6.39843 -1.24219,0 -2.74219,-0.42187 v -4.40625 l 1.07812,0.0703 q 2.15625,0 3.23438,-0.79687 1.10156,-0.77344 1.73437,-2.625 l 0.82032,-2.17969 -8.90625,-25.24219 h 6.14062 z"
     id="path8779" /><path
     d="m 137.125,232.61133 v 12.67969 h -5.92969 v -34.125 H 144.25 q 5.71875,0 9.07031,2.97656 3.375,2.97656 3.375,7.875 0,5.01562 -3.30469,7.80469 -3.28125,2.78906 -9.21093,2.78906 z m 0,-4.75781 h 7.125 q 3.16406,0 4.82812,-1.47657 1.66407,-1.5 1.66407,-4.3125 0,-2.76562 -1.6875,-4.40625 -1.6875,-1.66406 -4.64063,-1.71093 H 137.125 Z"
     id="path8781" /><path
     d="m 172.1875,245.75977 q -5.41406,0 -8.78906,-3.39844 -3.35157,-3.42188 -3.35157,-9.09375 v -0.70313 q 0,-3.79687 1.45313,-6.77343 1.47656,-3 4.125,-4.66407 2.64844,-1.66406 5.90625,-1.66406 5.17969,0 7.99219,3.30469 2.83593,3.30469 2.83593,9.35156 v 2.29688 h -16.57031 q 0.25781,3.14062 2.08594,4.96875 1.85156,1.82812 4.64062,1.82812 3.91407,0 6.375,-3.16406 l 3.07032,2.92969 q -1.52344,2.27343 -4.07813,3.53906 -2.53125,1.24219 -5.69531,1.24219 z m -0.67969,-21.72657 q -2.34375,0 -3.79687,1.64063 -1.42969,1.64062 -1.82813,4.57031 h 10.85156 v -0.42187 q -0.1875,-2.85938 -1.52343,-4.3125 -1.33594,-1.47657 -3.70313,-1.47657 z"
     id="path8783" /><path
     d="m 200.05469,225.13477 q -1.125,-0.1875 -2.32032,-0.1875 -3.91406,0 -5.27343,3 v 17.34375 h -5.69532 v -25.35938 h 5.4375 l 0.14063,2.83594 q 2.0625,-3.30469 5.71875,-3.30469 1.21875,0 2.01562,0.32813 z"
     id="path8785" /><path
     d="m 206.125,245.29102 v -21.14063 h -3.86719 v -4.21875 h 3.86719 v -2.32031 q 0,-4.21875 2.34375,-6.51563 2.34375,-2.29687 6.5625,-2.29687 1.5,0 3.1875,0.42187 l -0.14063,4.45313 q -0.9375,-0.1875 -2.17968,-0.1875 -4.07813,0 -4.07813,4.19531 v 2.25 h 5.15625 v 4.21875 h -5.15625 v 21.14063 z"
     id="path8787" /><path
     d="m 220.07031,232.37695 q 0,-3.72656 1.47656,-6.70312 1.47657,-3 4.14844,-4.59375 2.67188,-1.61719 6.14063,-1.61719 5.13281,0 8.32031,3.30469 3.21094,3.30469 3.46875,8.76562 l 0.0234,1.33594 q 0,3.75 -1.45313,6.70313 -1.42969,2.95312 -4.125,4.57031 -2.67187,1.61719 -6.1875,1.61719 -5.36719,0 -8.60156,-3.5625 -3.21094,-3.58594 -3.21094,-9.53907 z m 5.69531,0.49219 q 0,3.91406 1.61719,6.14063 1.61719,2.20312 4.5,2.20312 2.88281,0 4.47656,-2.25 1.61719,-2.25 1.61719,-6.58594 0,-3.84375 -1.66406,-6.09375 -1.64063,-2.25 -4.47656,-2.25 -2.78907,0 -4.42969,2.22657 -1.64063,2.20312 -1.64063,6.60937 z"
     id="path8789" /><path
     d="m 261.74219,225.13477 q -1.125,-0.1875 -2.32032,-0.1875 -3.91406,0 -5.27343,3 v 17.34375 h -5.69532 v -25.35938 h 5.4375 l 0.14063,2.83594 q 2.0625,-3.30469 5.71875,-3.30469 1.21875,0 2.01562,0.32813 z"
     id="path8791" /><path
     d="m 270.69531,219.93164 0.16406,2.64844 q 2.67188,-3.11719 7.3125,-3.11719 5.08594,0 6.96094,3.89063 2.76563,-3.89063 7.78125,-3.89063 4.19531,0 6.23438,2.32031 2.0625,2.32032 2.10937,6.84375 v 16.66407 h -5.69531 v -16.5 q 0,-2.41407 -1.05469,-3.53907 -1.05469,-1.125 -3.49219,-1.125 -1.94531,0 -3.1875,1.05469 -1.21875,1.03125 -1.71093,2.71875 l 0.0234,17.39063 h -5.69531 v -16.6875 q -0.11719,-4.47657 -4.57031,-4.47657 -3.42188,0 -4.85156,2.78907 v 18.375 h -5.69532 v -25.35938 z"
     id="path8793" /><path
     d="m 322.25781,245.29102 q -0.375,-0.72657 -0.65625,-2.36719 -2.71875,2.83594 -6.65625,2.83594 -3.82031,0 -6.23437,-2.17969 -2.41407,-2.17969 -2.41407,-5.39063 0,-4.05468 3,-6.21093 3.02344,-2.17969 8.625,-2.17969 h 3.49219 v -1.66406 q 0,-1.96875 -1.10156,-3.14063 -1.10156,-1.19531 -3.35156,-1.19531 -1.94532,0 -3.1875,0.98437 -1.24219,0.96094 -1.24219,2.46094 h -5.69531 q 0,-2.08594 1.38281,-3.89062 1.38281,-1.82813 3.75,-2.85938 2.39062,-1.03125 5.32031,-1.03125 4.45313,0 7.10156,2.25 2.64844,2.22656 2.71875,6.28125 v 11.4375 q 0,3.42188 0.96094,5.46094 v 0.39844 z M 316,241.18945 q 1.6875,0 3.16406,-0.82031 1.5,-0.82031 2.25,-2.20312 v -4.78125 h -3.07031 q -3.16406,0 -4.75781,1.10156 -1.59375,1.10156 -1.59375,3.11719 0,1.64062 1.07812,2.625 1.10156,0.96093 2.92969,0.96093 z"
     id="path8795" /><path
     d="m 338.35937,219.93164 0.16407,2.92969 q 2.8125,-3.39844 7.38281,-3.39844 7.92187,0 8.0625,9.07031 v 16.75782 h -5.69531 v -16.42969 q 0,-2.41406 -1.05469,-3.5625 -1.03125,-1.17188 -3.39844,-1.17188 -3.44531,0 -5.13281,3.11719 v 18.04688 h -5.69531 v -25.35938 z"
     id="path8797" /><path
     d="m 370.1875,241.21289 q 2.13281,0 3.53906,-1.24219 1.40625,-1.24218 1.5,-3.07031 h 5.36719 q -0.0937,2.36719 -1.47656,4.42969 -1.38282,2.03906 -3.75,3.23437 -2.36719,1.19532 -5.10938,1.19532 -5.32031,0 -8.4375,-3.44532 -3.11719,-3.44531 -3.11719,-9.51562 v -0.58594 q 0,-5.78906 3.09375,-9.25781 3.09375,-3.49219 8.4375,-3.49219 4.52344,0 7.35938,2.64844 2.85937,2.625 3,6.91406 h -5.36719 q -0.0937,-2.17969 -1.5,-3.58594 -1.38281,-1.40625 -3.53906,-1.40625 -2.76563,0 -4.26563,2.01563 -1.5,1.99219 -1.52343,6.07031 v 0.91406 q 0,4.125 1.47656,6.16407 1.5,2.01562 4.3125,2.01562 z"
     id="path8799" /><path
     d="m 396.0625,245.75977 q -5.41406,0 -8.78906,-3.39844 -3.35157,-3.42188 -3.35157,-9.09375 v -0.70313 q 0,-3.79687 1.45313,-6.77343 1.47656,-3 4.125,-4.66407 2.64844,-1.66406 5.90625,-1.66406 5.17969,0 7.99219,3.30469 2.83593,3.30469 2.83593,9.35156 v 2.29688 h -16.57031 q 0.25781,3.14062 2.08594,4.96875 1.85156,1.82812 4.64062,1.82812 3.91407,0 6.375,-3.16406 l 3.07032,2.92969 q -1.52344,2.27343 -4.07813,3.53906 -2.53125,1.24219 -5.69531,1.24219 z m -0.67969,-21.72657 q -2.34375,0 -3.79687,1.64063 -1.42969,1.64062 -1.82813,4.57031 h 10.85156 v -0.42187 q -0.1875,-2.85938 -1.52343,-4.3125 -1.33594,-1.47657 -3.70313,-1.47657 z"
     id="path8801" /></g></svg>
