<?xml version="1.0" encoding="UTF-8" standalone="no"?>
<svg
   width="456"
   height="456"
   viewBox="0 0 456 456"
   version="1.1"
   xml:space="preserve"
   style="fill-rule:evenodd;clip-rule:evenodd;stroke-linejoin:round;stroke-miterlimit:2;"
   id="svg10"
   sodipodi:docname="my_performance_icon.svg"
   inkscape:version="1.1.1 (3bf5ae0d25, 2021-09-20)"
   xmlns:inkscape="http://www.inkscape.org/namespaces/inkscape"
   xmlns:sodipodi="http://sodipodi.sourceforge.net/DTD/sodipodi-0.dtd"
   xmlns="http://www.w3.org/2000/svg"
   xmlns:svg="http://www.w3.org/2000/svg"><defs
   id="defs14"><rect
     x="62.334975"
     y="203.29064"
     width="450.94581"
     height="86.482757"
     id="rect1529" /></defs><sodipodi:namedview
   id="namedview12"
   pagecolor="#ffffff"
   bordercolor="#666666"
   borderopacity="1.0"
   inkscape:pageshadow="2"
   inkscape:pageopacity="0.0"
   inkscape:pagecheckerboard="0"
   showgrid="false"
   showguides="true"
   inkscape:guide-bbox="true"
   inkscape:snap-midpoints="true"
   inkscape:snap-smooth-nodes="true"
   inkscape:snap-intersection-paths="true"
   inkscape:object-paths="true"
   inkscape:snap-bbox="true"
   inkscape:snap-text-baseline="true"
   inkscape:snap-center="true"
   inkscape:snap-object-midpoints="true"
   inkscape:zoom="1.28"
   inkscape:cx="179.6875"
   inkscape:cy="186.32813"
   inkscape:window-width="1920"
   inkscape:window-height="1001"
   inkscape:window-x="-9"
   inkscape:window-y="-9"
   inkscape:window-maximized="1"
   inkscape:current-layer="svg10" />
    
    
    
    
<path
   style="fill:#000000;stroke-width:0.59041"
   d="m 260.70135,300.2485 c -27.55512,-3.06295 -51.73751,-14.57888 -71.11069,-33.8637 -7.75588,-7.72051 -12.45246,-13.57721 -17.73159,-22.11157 -23.0214,-37.21683 -23.30298,-85.44989 -0.71565,-122.5851 16.31388,-26.821212 41.80325,-45.983115 71.45411,-53.716393 12.52103,-3.265627 19.4657,-4.036799 33.15928,-3.682181 12.53716,0.32467 17.24766,0.981326 28.41132,3.960608 24.21518,6.462381 47.2104,22.026698 62.80023,42.506336 16.6776,21.90861 25.11688,48.53419 24.03007,75.81388 -1.23381,30.96969 -12.94025,57.78901 -34.73987,79.58862 -17.99617,17.99618 -40.22692,29.28657 -65.44628,33.23837 -7.48775,1.17331 -23.21356,1.61782 -30.11093,0.85113 z m 25.97806,-7.90732 c 25.2503,-3.41379 46.51391,-13.84621 64.30689,-31.55046 17.93082,-17.8414 28.51766,-39.51018 31.9572,-65.40887 1.14945,-8.65508 0.43001,-25.93767 -1.44983,-34.82812 -2.86534,-13.5512 -7.2045,-24.62665 -13.95557,-35.62082 -21.96503,-35.770113 -61.53738,-56.236757 -102.69391,-53.112813 -26.49298,2.010922 -49.86811,12.496861 -69.00769,30.956423 -23.71911,22.87638 -35.75906,53.94069 -33.68541,86.91181 1.69318,26.92158 12.92782,51.55894 32.40711,71.0682 17.45082,17.47766 38.97315,28.19676 63.22171,31.48729 8.10337,1.09963 21.16078,1.14362 28.8995,0.0974 z m -21.09808,-8.62361 c -23.45153,-1.54271 -47.15036,-12.30993 -63.99978,-29.0774 -21.50098,-21.39641 -31.93664,-48.97033 -29.98346,-79.22469 1.58416,-24.5383 11.84777,-47.08648 29.44152,-64.68023 13.96627,-13.966277 30.49736,-23.070241 49.64827,-27.342186 57.35562,-12.794176 113.80246,25.916386 122.52274,84.024616 1.19598,7.96944 1.21038,22.12568 0.0305,29.94077 -3.2479,21.51223 -13.24402,41.24134 -28.78373,56.80974 -16.72103,16.75191 -40.5538,27.9184 -62.50124,29.28405 -3.08489,0.19195 -6.53879,0.42836 -7.67533,0.52534 -1.13654,0.097 -5.0513,-0.02 -8.69946,-0.26001 z m 3.38576,-14.72203 c 0,-6.29771 0.1312,-7.21613 1.18082,-8.26575 1.38326,-1.38326 3.43831,-1.52317 5.05325,-0.34403 1.00906,0.73677 1.16946,1.72485 1.34182,8.26575 l 0.19575,7.42895 2.7563,-0.0117 c 6.47162,-0.0274 16.55226,-2.16785 25.4871,-5.41161 8.9231,-3.23949 17.5607,-8.00167 25.1502,-13.86608 7.24517,-5.59835 7.15018,-4.76638 1.224,-10.72013 -5.37384,-5.39887 -6.07223,-6.92614 -4.1423,-9.05868 2.06885,-2.28606 4.11756,-1.44281 9.65171,3.97264 l 5.16309,5.05235 2.61927,-3.13352 c 12.40144,-14.83626 19.87331,-32.49366 21.6328,-51.12225 0.25396,-2.68883 0.33695,-5.01357 0.18443,-5.16609 -0.15252,-0.15253 -3.00543,-0.27733 -6.33979,-0.27733 -5.98666,0 -8.9391,-0.58871 -9.80835,-1.95577 -0.809,-1.27229 -0.48249,-3.3393 0.71696,-4.53874 1.04777,-1.04777 1.96803,-1.18082 8.16734,-1.18082 3.84259,0 7.10962,-0.1231 7.26006,-0.27354 0.15045,-0.15045 0.0492,-2.74088 -0.22497,-5.75651 -1.48307,-16.31171 -8.97567,-34.92793 -19.24913,-47.82666 -5.44289,-6.83377 -4.67044,-6.77138 -10.61216,-0.85719 -3.03861,3.02453 -5.62831,5.11942 -6.32863,5.11942 -2.0361,0 -3.80975,-1.67434 -3.80975,-3.59643 0,-1.40497 1.01171,-2.80773 5.03532,-6.9816 l 5.03533,-5.22335 -3.09302,-2.78088 c -6.39729,-5.75172 -17.66714,-12.333429 -27.9372,-16.315618 -6.10412,-2.366851 -22.25139,-5.740745 -27.8969,-5.828916 -0.54853,-0.0086 -0.73801,1.74164 -0.73801,6.817007 0,8.263807 -0.76994,10.262217 -3.96227,10.284327 -0.71799,0.005 -1.84715,-0.57242 -2.50924,-1.28311 -1.06991,-1.1484 -1.20383,-2.06405 -1.20383,-8.230899 0,-3.816314 -0.25462,-7.096122 -0.56583,-7.288461 -1.84222,-1.138549 -21.7725,2.979249 -29.7416,6.144914 -9.66353,3.838764 -21.39828,10.905926 -26.79714,16.138366 l -2.4916,2.4148 5.00084,5.18759 c 5.37313,5.57377 6.02072,7.16076 3.82003,9.36144 -1.26063,1.26063 -2.72974,1.49037 -4.07684,0.63753 -0.45627,-0.28886 -2.88044,-2.54311 -5.38705,-5.00944 -2.5066,-2.46634 -4.79014,-4.46905 -5.07452,-4.45048 -0.84651,0.0553 -5.36868,5.76447 -9.48541,11.97519 -6.10121,9.20465 -10.1831,18.67538 -12.76404,29.61498 -1.52333,6.45678 -2.91592,16.70277 -2.38658,17.55926 0.15237,0.24654 3.44958,0.44826 7.32712,0.44826 6.26287,0 7.18193,0.13185 8.2309,1.18082 1.19945,1.19944 1.52596,3.26645 0.71696,4.53874 -0.88176,1.38673 -3.856,1.95577 -10.22229,1.95577 h -6.47642 l 0.34947,3.09966 c 1.07904,9.57075 2.84857,17.96236 5.07334,24.05923 4.11561,11.27859 11.24894,23.48731 17.85006,30.55041 l 1.79022,1.9155 5.12508,-5.01516 c 4.18245,-4.09274 5.45867,-5.01516 6.93885,-5.01516 1.97908,0 3.65197,1.74517 3.65197,3.80976 0,0.70052 -2.09868,3.29383 -5.13085,6.3401 l -5.13084,5.15473 1.14557,1.26736 c 1.68182,1.86061 9.46342,7.66822 13.5442,10.10839 13.37168,7.99583 29.58161,13.19941 41.77154,13.40916 l 3.39486,0.0584 z M 230.97712,224.22546 C 230.4397,223.63162 230,222.3788 230,221.44142 c 0,-1.45015 2.90574,-4.61485 19.48355,-21.21988 l 19.48354,-19.51555 v -27.16352 c 0,-30.62827 -0.0829,-30.01746 4.02779,-29.6726 3.71481,0.31165 3.66501,-0.1382 3.50019,31.6165 l -0.14785,28.48453 -20.6612,20.66714 c -21.76967,21.7759 -22.32788,22.21842 -24.7089,19.58742 z"
   id="path946" /><path
   style="fill:#000000;stroke-width:0.568594"
   d="m 166.77338,352.29607 c -2.03209,-1.94332 -4.34511,-4.17191 -5.14007,-4.95244 -0.79495,-0.78052 -2.31886,-1.55057 -3.38647,-1.71121 -1.8567,-0.27937 -3.88884,-2.9112 -46.72434,-60.51233 l -44.783212,-60.22025 -3.057034,-0.90332 c -6.842192,-2.0218 -10.658926,-3.75082 -14.864969,-6.73402 -2.522678,-1.78925 -4.903544,-3.0531 -5.539706,-2.94069 -1.988806,0.35143 -4.317671,-1.71682 -7.926902,-7.03979 -1.945594,-2.86941 -3.6041,-5.59433 -3.685567,-6.05536 -0.08147,-0.46105 0.276025,-1.63039 0.794433,-2.59851 0.812282,-1.51695 0.817006,-2.54608 0.03419,-7.4458 -1.495548,-9.36077 -0.01121,-18.17293 4.37576,-25.97776 8.644983,-15.38025 24.840841,-23.23267 42.160948,-20.44138 5.12482,0.82592 9.60123,2.55132 14.56596,5.61435 3.38143,2.0862 4.09165,2.3117 5.52185,1.75321 2.276039,-0.8888 3.923939,0.49944 8.080519,6.80727 3.59806,5.46026 3.95633,6.38985 3.26533,8.47246 -0.27923,0.84158 0.0743,4.36122 0.95083,9.46552 1.18244,6.88596 1.30886,8.81366 0.82853,12.63402 l -0.56683,4.50823 24.38327,39.2078 c 49.98373,80.37285 54.85219,88.24586 54.96552,88.8872 0.0638,0.36089 -0.14505,1.27775 -0.46405,2.03748 -0.51267,1.22103 -0.30306,2.03601 1.8061,7.02244 2.86258,6.76766 3.17938,8.21603 2.0987,9.59517 -1.39571,1.7812 -20.55908,14.45334 -22.33026,14.76631 -1.42337,0.25151 -2.20942,-0.22321 -5.36253,-3.2386 z m 12.62294,-9.96921 c 3.64234,-2.43874 6.7679,-4.61498 6.9457,-4.8361 0.28301,-0.35199 -2.29895,-7.12777 -2.86774,-7.52571 -0.11902,-0.0833 -3.19054,1.90578 -6.8256,4.42012 -3.63506,2.51434 -7.37031,5.04322 -8.30055,5.61971 -0.93024,0.57651 -1.66661,1.18815 -1.63638,1.35922 0.10377,0.58729 5.21387,5.54668 5.63801,5.47173 0.23326,-0.0412 3.40422,-2.07026 7.04656,-4.50897 z M 168.28184,330.6437 c 14.00821,-9.4738 13.54786,-9.11796 13.07012,-10.10273 -0.24337,-0.50165 -9.69729,-15.77603 -21.00872,-33.94308 -11.31142,-18.16705 -27.55366,-44.26819 -36.09385,-58.00257 -8.54019,-13.73436 -15.64481,-25.06605 -15.78804,-25.18152 -0.14324,-0.11547 -1.44118,1.52385 -2.8843,3.64292 -2.77282,4.07158 -7.76917,9.0627 -11.49106,11.47901 -3.59931,2.33673 -7.23051,3.80877 -12.72248,5.15754 l -5.14827,1.26436 41.47421,55.78946 c 31.88556,42.89118 41.66374,55.69292 42.29399,55.37194 0.45088,-0.22963 4.18516,-2.69353 8.2984,-5.47533 z M 114.6708,260.57773 c -2.79107,-0.32455 -5.71508,-2.75594 -9.19546,-7.64625 -4.94347,-6.94609 -5.87995,-11.56608 -3.22943,-15.93183 2.71506,-4.47207 7.23876,-6.45099 11.96945,-5.23616 3.29607,0.84642 5.60268,2.97354 9.28024,8.55808 5.43929,8.25978 5.25482,14.26364 -0.56245,18.30609 -2.17778,1.51335 -5.42571,2.27991 -8.26235,1.95007 z m 4.61303,-9.70738 c 0.62287,-1.45237 0.49984,-1.75466 -2.56818,-6.31073 -1.77231,-2.63192 -3.56161,-4.92523 -3.97622,-5.09625 -2.07135,-0.85442 -4.26378,1.06531 -3.85549,3.37592 0.23442,1.32662 4.60743,8.43289 5.85927,9.52147 1.2035,1.04655 3.82108,0.18737 4.54062,-1.49041 z M 86.08097,213.92726 c 9.45158,-4.30305 17.41426,-15.23191 18.65775,-25.60797 0.49543,-4.13399 -0.44282,-13.07233 -1.35528,-12.9111 -0.36536,0.0646 -2.59907,1.97794 -4.96382,4.25194 -11.3046,10.87082 -23.30595,19.32808 -37.37412,26.33726 -4.063982,2.0248 -7.743953,3.87869 -8.17771,4.11977 -0.577971,0.32123 -0.04765,0.88281 1.985221,2.10221 4.331383,2.59815 9.393626,4.33955 13.601194,4.67878 4.966215,0.40038 13.311175,-1.00611 17.626765,-2.97089 z m -38.70269,-9.8974 c 14.731199,-6.66716 28.18176,-14.76572 36.86781,-22.19804 5.99442,-5.12919 17.23116,-15.67662 17.5471,-16.47069 0.27054,-0.67993 -1.3694,-3.28762 -1.9977,-3.1766 -0.2268,0.0401 -2.48528,2.09483 -5.01886,4.56614 -7.25403,7.07573 -15.58155,14.02536 -22.570004,18.83551 -6.330986,4.35762 -21.415358,12.71596 -27.478807,15.22616 -3.191527,1.32126 -3.527032,1.95086 -2.044418,3.83657 0.926015,1.17778 0.642046,1.21521 4.694879,-0.61905 z m 0.05971,-13.20439 c 7.506865,-3.60509 18.4841,-10.08838 23.760031,-14.03298 7.563499,-5.65489 20.629099,-17.41102 20.453679,-18.40375 -0.10917,-0.61782 -6.86695,-4.36088 -9.17029,-5.07933 -6.87061,-2.14306 -14.626969,-2.02113 -21.12141,0.33203 -15.049509,5.45293 -24.034315,20.62664 -21.336113,36.03283 0.684577,3.90866 0.866401,4.32859 1.695383,3.91495 0.51072,-0.25484 3.084143,-1.49853 5.71872,-2.76375 z"
   id="path1058" /></svg>
